<svg xmlns="http://www.w3.org/2000/svg" width="600" height="600">
  <rect width="100%" height="100%" fill="#fff"/>
  <path fill="#f7b911" d="M218.653689 40.5h197.5c45.971 10.474 75.804 37.308 89.5 81.999999 9.5 46.14-3.997 83.974-62 124 56.281 43.81 78.11 99.977 65 170-14.497 53.164-47.33 89.997-98.5 110.5l-248.5 29.5 103-110 85.5-12c24.937-7.435 38.937-23.101 42-48.5.5-20.5-7.5-38.5-39.5-49.5h-63.5l-201.500003 223 89.000003-224H87.653686Zm-3 205.999999 44-154h152q89 62-26 129z"/>
  <path fill="#fff" d="m215.653689 246.499999 44-154h152q89 62-26 129z"/>
</svg>
